<?xml version="1.0" encoding="UTF-8" standalone="no"?>
<!-- Created with matplotlib (http://matplotlib.org/) -->

<svg
   xmlns:dc="http://purl.org/dc/elements/1.1/"
   xmlns:cc="http://creativecommons.org/ns#"
   xmlns:rdf="http://www.w3.org/1999/02/22-rdf-syntax-ns#"
   xmlns:svg="http://www.w3.org/2000/svg"
   xmlns="http://www.w3.org/2000/svg"
   xmlns:xlink="http://www.w3.org/1999/xlink"
   xmlns:sodipodi="http://sodipodi.sourceforge.net/DTD/sodipodi-0.dtd"
   xmlns:inkscape="http://www.inkscape.org/namespaces/inkscape"
   height="369.69687pt"
   version="1.1"
   viewBox="0 0 723.96716 369.69687"
   width="723.96716pt"
   id="svg454"
   sodipodi:docname="backchannel_predictions.svg"
   inkscape:version="0.92.1 r">
  <metadata
     id="metadata458">
    <rdf:RDF>
      <cc:Work
         rdf:about="">
        <dc:format>image/svg+xml</dc:format>
        <dc:type
           rdf:resource="http://purl.org/dc/dcmitype/StillImage" />
        <dc:title />
      </cc:Work>
    </rdf:RDF>
  </metadata>
  <sodipodi:namedview
     pagecolor="#ffffff"
     bordercolor="#666666"
     borderopacity="1"
     objecttolerance="10"
     gridtolerance="10"
     guidetolerance="10"
     inkscape:pageopacity="0"
     inkscape:pageshadow="2"
     inkscape:window-width="1366"
     inkscape:window-height="699"
     id="namedview456"
     showgrid="false"
     fit-margin-top="0"
     fit-margin-left="0"
     fit-margin-right="0"
     fit-margin-bottom="0"
     inkscape:zoom="0.80416666"
     inkscape:cx="475.05964"
     inkscape:cy="255.20098"
     inkscape:window-x="0"
     inkscape:window-y="27"
     inkscape:window-maximized="1"
     inkscape:current-layer="legend_1" />
  <defs
     id="defs4"
     style="stroke-linecap:butt;stroke-linejoin:round">
    <style
       type="text/css"
       id="style2">
*{stroke-linecap:butt;stroke-linejoin:round;}
  </style>
  </defs>
  <g
     style="stroke-linecap:butt;stroke-linejoin:round"
     id="axes_1"
     transform="translate(-89.6,-36.721875)">
    <g
       style="stroke-linecap:butt;stroke-linejoin:round"
       id="patch_2">
      <path
         inkscape:connector-curvature="0"
         id="path9"
         style="fill:#ffffff;stroke-linecap:butt;stroke-linejoin:round"
         d="M 90,378 H 648 V 51.84 H 90 Z" />
    </g>
    <g
       style="stroke-linecap:butt;stroke-linejoin:round"
       id="matplotlib.axis_1">
      <g
         style="stroke-linecap:butt;stroke-linejoin:round"
         id="xtick_1">
        <g
           style="stroke-linecap:butt;stroke-linejoin:round"
           id="line2d_1">
          <defs
             id="defs13">
            <path
               inkscape:connector-curvature="0"
               style="stroke:#000000;stroke-width:0.80000001;stroke-linecap:butt;stroke-linejoin:round"
               id="mec759464fb"
               d="M 0,0 V 3.5" />
          </defs>
          <g
             style="stroke-linecap:butt;stroke-linejoin:round"
             id="g17">
            <use
               height="100%"
               width="100%"
               id="use15"
               y="378"
               xlink:href="#mec759464fb"
               x="180.75903"
               style="stroke:#000000;stroke-width:0.80000001;stroke-linecap:butt;stroke-linejoin:round" />
          </g>
        </g>
        <g
           style="stroke-linecap:butt;stroke-linejoin:round"
           id="text_1">
          <!-- 00:00:20.0 -->
          <defs
             id="defs24">
            <path
               style="stroke-linecap:butt;stroke-linejoin:round"
               inkscape:connector-curvature="0"
               id="DejaVuSans-30"
               d="m 31.78125,66.40625 q -7.609375,0 -11.453125,-7.5 Q 16.5,51.421875 16.5,36.375 q 0,-14.984375 3.828125,-22.484375 3.84375,-7.5 11.453125,-7.5 7.671875,0 11.5,7.5 3.84375,7.5 3.84375,22.484375 0,15.046875 -3.84375,22.53125 -3.828125,7.5 -11.5,7.5 z m 0,7.8125 q 12.265625,0 18.734375,-9.703125 6.46875,-9.6875 6.46875,-28.140625 0,-18.40625 -6.46875,-28.109375 -6.46875,-9.6875 -18.734375,-9.6875 -12.25,0 -18.71875,9.6875 Q 6.59375,17.96875 6.59375,36.375 q 0,18.453125 6.46875,28.140625 6.46875,9.703125 18.71875,9.703125 z" />
            <path
               style="stroke-linecap:butt;stroke-linejoin:round"
               inkscape:connector-curvature="0"
               id="DejaVuSans-3a"
               d="M 11.71875,12.40625 H 22.015625 V 0 H 11.71875 Z m 0,39.296875 H 22.015625 V 39.3125 H 11.71875 Z" />
            <path
               style="stroke-linecap:butt;stroke-linejoin:round"
               inkscape:connector-curvature="0"
               id="DejaVuSans-32"
               d="M 19.1875,8.296875 H 53.609375 V 0 H 7.328125 v 8.296875 q 5.609375,5.8125 15.296875,15.59375 9.703125,9.796875 12.1875,12.640625 4.734375,5.3125 6.609375,9 1.890625,3.6875 1.890625,7.25 0,5.8125 -4.078125,9.46875 -4.078125,3.671875 -10.625,3.671875 -4.640625,0 -9.796875,-1.609375 -5.140625,-1.609375 -11,-4.890625 v 9.96875 Q 13.765625,71.78125 18.9375,73 q 5.1875,1.21875 9.484375,1.21875 11.328125,0 18.0625,-5.671875 6.734375,-5.65625 6.734375,-15.125 0,-4.5 -1.6875,-8.53125 Q 49.859375,40.875 45.40625,35.40625 44.1875,33.984375 37.640625,27.21875 31.109375,20.453125 19.1875,8.296875 Z" />
            <path
               style="stroke-linecap:butt;stroke-linejoin:round"
               inkscape:connector-curvature="0"
               id="DejaVuSans-2e"
               d="M 10.6875,12.40625 H 21 V 0 H 10.6875 Z" />
          </defs>
          <g
             style="stroke-linecap:butt;stroke-linejoin:round"
             id="g46"
             transform="matrix(0.1,0,0,-0.1,153.53247,392.59844)">
            <use
               height="100%"
               width="100%"
               y="0"
               x="0"
               style="stroke-linecap:butt;stroke-linejoin:round"
               id="use26"
               xlink:href="#DejaVuSans-30" />
            <use
               height="100%"
               width="100%"
               y="0"
               style="stroke-linecap:butt;stroke-linejoin:round"
               id="use28"
               xlink:href="#DejaVuSans-30"
               x="63.623047" />
            <use
               height="100%"
               width="100%"
               y="0"
               style="stroke-linecap:butt;stroke-linejoin:round"
               id="use30"
               xlink:href="#DejaVuSans-3a"
               x="127.24609" />
            <use
               height="100%"
               width="100%"
               y="0"
               style="stroke-linecap:butt;stroke-linejoin:round"
               id="use32"
               xlink:href="#DejaVuSans-30"
               x="160.9375" />
            <use
               height="100%"
               width="100%"
               y="0"
               style="stroke-linecap:butt;stroke-linejoin:round"
               id="use34"
               xlink:href="#DejaVuSans-30"
               x="224.56055" />
            <use
               height="100%"
               width="100%"
               y="0"
               style="stroke-linecap:butt;stroke-linejoin:round"
               id="use36"
               xlink:href="#DejaVuSans-3a"
               x="288.18359" />
            <use
               height="100%"
               width="100%"
               y="0"
               style="stroke-linecap:butt;stroke-linejoin:round"
               id="use38"
               xlink:href="#DejaVuSans-32"
               x="321.875" />
            <use
               height="100%"
               width="100%"
               y="0"
               style="stroke-linecap:butt;stroke-linejoin:round"
               id="use40"
               xlink:href="#DejaVuSans-30"
               x="385.49805" />
            <use
               height="100%"
               width="100%"
               y="0"
               style="stroke-linecap:butt;stroke-linejoin:round"
               id="use42"
               xlink:href="#DejaVuSans-2e"
               x="449.12109" />
            <use
               height="100%"
               width="100%"
               y="0"
               style="stroke-linecap:butt;stroke-linejoin:round"
               id="use44"
               xlink:href="#DejaVuSans-30"
               x="480.9082" />
          </g>
        </g>
      </g>
      <g
         style="stroke-linecap:butt;stroke-linejoin:round"
         id="xtick_2">
        <g
           style="stroke-linecap:butt;stroke-linejoin:round"
           id="line2d_2">
          <g
             style="stroke-linecap:butt;stroke-linejoin:round"
             id="g52">
            <use
               height="100%"
               width="100%"
               id="use50"
               y="378"
               xlink:href="#mec759464fb"
               x="292.80722"
               style="stroke:#000000;stroke-width:0.80000001;stroke-linecap:butt;stroke-linejoin:round" />
          </g>
        </g>
        <g
           style="stroke-linecap:butt;stroke-linejoin:round"
           id="text_2">
          <!-- 00:00:40.0 -->
          <defs
             id="defs56">
            <path
               style="stroke-linecap:butt;stroke-linejoin:round"
               inkscape:connector-curvature="0"
               id="DejaVuSans-34"
               d="M 37.796875,64.3125 12.890625,25.390625 h 24.90625 z m -2.59375,8.59375 h 12.40625 V 25.390625 h 10.40625 V 17.1875 H 47.609375 V 0 h -9.8125 V 17.1875 H 4.890625 v 9.515625 z" />
          </defs>
          <g
             style="stroke-linecap:butt;stroke-linejoin:round"
             id="g78"
             transform="matrix(0.1,0,0,-0.1,265.58067,392.59844)">
            <use
               height="100%"
               width="100%"
               y="0"
               x="0"
               style="stroke-linecap:butt;stroke-linejoin:round"
               id="use58"
               xlink:href="#DejaVuSans-30" />
            <use
               height="100%"
               width="100%"
               y="0"
               style="stroke-linecap:butt;stroke-linejoin:round"
               id="use60"
               xlink:href="#DejaVuSans-30"
               x="63.623047" />
            <use
               height="100%"
               width="100%"
               y="0"
               style="stroke-linecap:butt;stroke-linejoin:round"
               id="use62"
               xlink:href="#DejaVuSans-3a"
               x="127.24609" />
            <use
               height="100%"
               width="100%"
               y="0"
               style="stroke-linecap:butt;stroke-linejoin:round"
               id="use64"
               xlink:href="#DejaVuSans-30"
               x="160.9375" />
            <use
               height="100%"
               width="100%"
               y="0"
               style="stroke-linecap:butt;stroke-linejoin:round"
               id="use66"
               xlink:href="#DejaVuSans-30"
               x="224.56055" />
            <use
               height="100%"
               width="100%"
               y="0"
               style="stroke-linecap:butt;stroke-linejoin:round"
               id="use68"
               xlink:href="#DejaVuSans-3a"
               x="288.18359" />
            <use
               height="100%"
               width="100%"
               y="0"
               style="stroke-linecap:butt;stroke-linejoin:round"
               id="use70"
               xlink:href="#DejaVuSans-34"
               x="321.875" />
            <use
               height="100%"
               width="100%"
               y="0"
               style="stroke-linecap:butt;stroke-linejoin:round"
               id="use72"
               xlink:href="#DejaVuSans-30"
               x="385.49805" />
            <use
               height="100%"
               width="100%"
               y="0"
               style="stroke-linecap:butt;stroke-linejoin:round"
               id="use74"
               xlink:href="#DejaVuSans-2e"
               x="449.12109" />
            <use
               height="100%"
               width="100%"
               y="0"
               style="stroke-linecap:butt;stroke-linejoin:round"
               id="use76"
               xlink:href="#DejaVuSans-30"
               x="480.9082" />
          </g>
        </g>
      </g>
      <g
         style="stroke-linecap:butt;stroke-linejoin:round"
         id="xtick_3">
        <g
           style="stroke-linecap:butt;stroke-linejoin:round"
           id="line2d_3">
          <g
             style="stroke-linecap:butt;stroke-linejoin:round"
             id="g84">
            <use
               height="100%"
               width="100%"
               id="use82"
               y="378"
               xlink:href="#mec759464fb"
               x="404.85541"
               style="stroke:#000000;stroke-width:0.80000001;stroke-linecap:butt;stroke-linejoin:round" />
          </g>
        </g>
        <g
           style="stroke-linecap:butt;stroke-linejoin:round"
           id="text_3">
          <!-- 00:01:00.0 -->
          <defs
             id="defs88">
            <path
               style="stroke-linecap:butt;stroke-linejoin:round"
               inkscape:connector-curvature="0"
               id="DejaVuSans-31"
               d="m 12.40625,8.296875 h 16.109375 v 55.625 L 10.984375,60.40625 v 8.984375 l 17.4375,3.515625 H 38.28125 V 8.296875 H 54.390625 V 0 H 12.40625 Z" />
          </defs>
          <g
             style="stroke-linecap:butt;stroke-linejoin:round"
             id="g110"
             transform="matrix(0.1,0,0,-0.1,377.62886,392.59844)">
            <use
               height="100%"
               width="100%"
               y="0"
               x="0"
               style="stroke-linecap:butt;stroke-linejoin:round"
               id="use90"
               xlink:href="#DejaVuSans-30" />
            <use
               height="100%"
               width="100%"
               y="0"
               style="stroke-linecap:butt;stroke-linejoin:round"
               id="use92"
               xlink:href="#DejaVuSans-30"
               x="63.623047" />
            <use
               height="100%"
               width="100%"
               y="0"
               style="stroke-linecap:butt;stroke-linejoin:round"
               id="use94"
               xlink:href="#DejaVuSans-3a"
               x="127.24609" />
            <use
               height="100%"
               width="100%"
               y="0"
               style="stroke-linecap:butt;stroke-linejoin:round"
               id="use96"
               xlink:href="#DejaVuSans-30"
               x="160.9375" />
            <use
               height="100%"
               width="100%"
               y="0"
               style="stroke-linecap:butt;stroke-linejoin:round"
               id="use98"
               xlink:href="#DejaVuSans-31"
               x="224.56055" />
            <use
               height="100%"
               width="100%"
               y="0"
               style="stroke-linecap:butt;stroke-linejoin:round"
               id="use100"
               xlink:href="#DejaVuSans-3a"
               x="288.18359" />
            <use
               height="100%"
               width="100%"
               y="0"
               style="stroke-linecap:butt;stroke-linejoin:round"
               id="use102"
               xlink:href="#DejaVuSans-30"
               x="321.875" />
            <use
               height="100%"
               width="100%"
               y="0"
               style="stroke-linecap:butt;stroke-linejoin:round"
               id="use104"
               xlink:href="#DejaVuSans-30"
               x="385.49805" />
            <use
               height="100%"
               width="100%"
               y="0"
               style="stroke-linecap:butt;stroke-linejoin:round"
               id="use106"
               xlink:href="#DejaVuSans-2e"
               x="449.12109" />
            <use
               height="100%"
               width="100%"
               y="0"
               style="stroke-linecap:butt;stroke-linejoin:round"
               id="use108"
               xlink:href="#DejaVuSans-30"
               x="480.9082" />
          </g>
        </g>
      </g>
      <g
         style="stroke-linecap:butt;stroke-linejoin:round"
         id="xtick_4">
        <g
           style="stroke-linecap:butt;stroke-linejoin:round"
           id="line2d_4">
          <g
             style="stroke-linecap:butt;stroke-linejoin:round"
             id="g116">
            <use
               height="100%"
               width="100%"
               id="use114"
               y="378"
               xlink:href="#mec759464fb"
               x="516.90363"
               style="stroke:#000000;stroke-width:0.80000001;stroke-linecap:butt;stroke-linejoin:round" />
          </g>
        </g>
        <g
           style="stroke-linecap:butt;stroke-linejoin:round"
           id="text_4">
          <!-- 00:01:20.0 -->
          <g
             style="stroke-linecap:butt;stroke-linejoin:round"
             id="g139"
             transform="matrix(0.1,0,0,-0.1,489.67705,392.59844)">
            <use
               height="100%"
               width="100%"
               y="0"
               x="0"
               style="stroke-linecap:butt;stroke-linejoin:round"
               id="use119"
               xlink:href="#DejaVuSans-30" />
            <use
               height="100%"
               width="100%"
               y="0"
               style="stroke-linecap:butt;stroke-linejoin:round"
               id="use121"
               xlink:href="#DejaVuSans-30"
               x="63.623047" />
            <use
               height="100%"
               width="100%"
               y="0"
               style="stroke-linecap:butt;stroke-linejoin:round"
               id="use123"
               xlink:href="#DejaVuSans-3a"
               x="127.24609" />
            <use
               height="100%"
               width="100%"
               y="0"
               style="stroke-linecap:butt;stroke-linejoin:round"
               id="use125"
               xlink:href="#DejaVuSans-30"
               x="160.9375" />
            <use
               height="100%"
               width="100%"
               y="0"
               style="stroke-linecap:butt;stroke-linejoin:round"
               id="use127"
               xlink:href="#DejaVuSans-31"
               x="224.56055" />
            <use
               height="100%"
               width="100%"
               y="0"
               style="stroke-linecap:butt;stroke-linejoin:round"
               id="use129"
               xlink:href="#DejaVuSans-3a"
               x="288.18359" />
            <use
               height="100%"
               width="100%"
               y="0"
               style="stroke-linecap:butt;stroke-linejoin:round"
               id="use131"
               xlink:href="#DejaVuSans-32"
               x="321.875" />
            <use
               height="100%"
               width="100%"
               y="0"
               style="stroke-linecap:butt;stroke-linejoin:round"
               id="use133"
               xlink:href="#DejaVuSans-30"
               x="385.49805" />
            <use
               height="100%"
               width="100%"
               y="0"
               style="stroke-linecap:butt;stroke-linejoin:round"
               id="use135"
               xlink:href="#DejaVuSans-2e"
               x="449.12109" />
            <use
               height="100%"
               width="100%"
               y="0"
               style="stroke-linecap:butt;stroke-linejoin:round"
               id="use137"
               xlink:href="#DejaVuSans-30"
               x="480.9082" />
          </g>
        </g>
      </g>
      <g
         style="stroke-linecap:butt;stroke-linejoin:round"
         id="xtick_5">
        <g
           style="stroke-linecap:butt;stroke-linejoin:round"
           id="line2d_5">
          <g
             style="stroke-linecap:butt;stroke-linejoin:round"
             id="g145">
            <use
               height="100%"
               width="100%"
               id="use143"
               y="378"
               xlink:href="#mec759464fb"
               x="628.95178"
               style="stroke:#000000;stroke-width:0.80000001;stroke-linecap:butt;stroke-linejoin:round" />
          </g>
        </g>
        <g
           style="stroke-linecap:butt;stroke-linejoin:round"
           id="text_5">
          <!-- 00:01:40.0 -->
          <g
             style="stroke-linecap:butt;stroke-linejoin:round"
             id="g168"
             transform="matrix(0.1,0,0,-0.1,601.72524,392.59844)">
            <use
               height="100%"
               width="100%"
               y="0"
               x="0"
               style="stroke-linecap:butt;stroke-linejoin:round"
               id="use148"
               xlink:href="#DejaVuSans-30" />
            <use
               height="100%"
               width="100%"
               y="0"
               style="stroke-linecap:butt;stroke-linejoin:round"
               id="use150"
               xlink:href="#DejaVuSans-30"
               x="63.623047" />
            <use
               height="100%"
               width="100%"
               y="0"
               style="stroke-linecap:butt;stroke-linejoin:round"
               id="use152"
               xlink:href="#DejaVuSans-3a"
               x="127.24609" />
            <use
               height="100%"
               width="100%"
               y="0"
               style="stroke-linecap:butt;stroke-linejoin:round"
               id="use154"
               xlink:href="#DejaVuSans-30"
               x="160.9375" />
            <use
               height="100%"
               width="100%"
               y="0"
               style="stroke-linecap:butt;stroke-linejoin:round"
               id="use156"
               xlink:href="#DejaVuSans-31"
               x="224.56055" />
            <use
               height="100%"
               width="100%"
               y="0"
               style="stroke-linecap:butt;stroke-linejoin:round"
               id="use158"
               xlink:href="#DejaVuSans-3a"
               x="288.18359" />
            <use
               height="100%"
               width="100%"
               y="0"
               style="stroke-linecap:butt;stroke-linejoin:round"
               id="use160"
               xlink:href="#DejaVuSans-34"
               x="321.875" />
            <use
               height="100%"
               width="100%"
               y="0"
               style="stroke-linecap:butt;stroke-linejoin:round"
               id="use162"
               xlink:href="#DejaVuSans-30"
               x="385.49805" />
            <use
               height="100%"
               width="100%"
               y="0"
               style="stroke-linecap:butt;stroke-linejoin:round"
               id="use164"
               xlink:href="#DejaVuSans-2e"
               x="449.12109" />
            <use
               height="100%"
               width="100%"
               y="0"
               style="stroke-linecap:butt;stroke-linejoin:round"
               id="use166"
               xlink:href="#DejaVuSans-30"
               x="480.9082" />
          </g>
        </g>
      </g>
      <g
         style="stroke-linecap:butt;stroke-linejoin:round"
         id="text_6">
        <!-- time -->
        <defs
           id="defs176">
          <path
             style="stroke-linecap:butt;stroke-linejoin:round"
             inkscape:connector-curvature="0"
             id="DejaVuSans-74"
             d="M 18.3125,70.21875 V 54.6875 h 18.5 v -6.984375 h -18.5 v -29.6875 q 0,-6.6875 1.828125,-8.59375 1.828125,-1.90625 7.453125,-1.90625 H 36.8125 V 0 H 27.59375 Q 17.1875,0 13.234375,3.875 9.28125,7.765625 9.28125,18.015625 v 29.6875 H 2.6875 V 54.6875 h 6.59375 v 15.53125 z" />
          <path
             style="stroke-linecap:butt;stroke-linejoin:round"
             inkscape:connector-curvature="0"
             id="DejaVuSans-69"
             d="M 9.421875,54.6875 H 18.40625 V 0 H 9.421875 Z m 0,21.296875 H 18.40625 V 64.59375 H 9.421875 Z" />
          <path
             style="stroke-linecap:butt;stroke-linejoin:round"
             inkscape:connector-curvature="0"
             id="DejaVuSans-6d"
             d="M 52,44.1875 Q 55.375,50.25 60.0625,53.125 64.75,56 71.09375,56 q 8.546875,0 13.1875,-5.984375 4.640625,-5.96875 4.640625,-17 V 0 h -9.03125 v 32.71875 q 0,7.859375 -2.796875,11.65625 -2.78125,3.8125 -8.484375,3.8125 -6.984375,0 -11.046875,-4.640625 -4.046875,-4.625 -4.046875,-12.640625 V 0 h -9.03125 v 32.71875 q 0,7.90625 -2.78125,11.6875 -2.78125,3.78125 -8.59375,3.78125 -6.890625,0 -10.953125,-4.65625 -4.046875,-4.65625 -4.046875,-12.625 V 0 h -9.03125 v 54.6875 h 9.03125 v -8.5 q 3.078125,5.03125 7.375,7.421875 Q 29.78125,56 35.6875,56 41.65625,56 45.828125,52.96875 50,49.953125 52,44.1875 Z" />
          <path
             style="stroke-linecap:butt;stroke-linejoin:round"
             inkscape:connector-curvature="0"
             id="DejaVuSans-65"
             d="m 56.203125,29.59375 v -4.390625 h -41.3125 q 0.59375,-9.28125 5.59375,-14.140625 5,-4.859375 13.9375,-4.859375 5.171875,0 10.03125,1.265625 4.859375,1.265625 9.65625,3.8125 v -8.5 q -4.84375,-2.046875 -9.921875,-3.125 -5.078125,-1.078125 -10.296875,-1.078125 -13.09375,0 -20.734375,7.609375 -7.640625,7.625 -7.640625,20.625 0,13.421875 7.25,21.296875 Q 20.015625,56 32.328125,56 q 11.03125,0 17.453125,-7.109375 6.421875,-7.09375 6.421875,-19.296875 z m -8.984375,2.640625 q -0.09375,7.359375 -4.125,11.75 -4.03125,4.40625 -10.671875,4.40625 -7.515625,0 -12.03125,-4.25 -4.515625,-4.25 -5.203125,-11.96875 z" />
        </defs>
        <g
           style="stroke-linecap:butt;stroke-linejoin:round"
           id="g186"
           transform="matrix(0.1,0,0,-0.1,357.70391,406.27656)">
          <use
             height="100%"
             width="100%"
             y="0"
             x="0"
             style="stroke-linecap:butt;stroke-linejoin:round"
             id="use178"
             xlink:href="#DejaVuSans-74" />
          <use
             height="100%"
             width="100%"
             y="0"
             style="stroke-linecap:butt;stroke-linejoin:round"
             id="use180"
             xlink:href="#DejaVuSans-69"
             x="39.208984" />
          <use
             height="100%"
             width="100%"
             y="0"
             style="stroke-linecap:butt;stroke-linejoin:round"
             id="use182"
             xlink:href="#DejaVuSans-6d"
             x="66.992188" />
          <use
             height="100%"
             width="100%"
             y="0"
             style="stroke-linecap:butt;stroke-linejoin:round"
             id="use184"
             xlink:href="#DejaVuSans-65"
             x="164.4043" />
        </g>
      </g>
    </g>
    <g
       style="stroke-linecap:butt;stroke-linejoin:round"
       id="matplotlib.axis_2" />
    <g
       style="stroke-linecap:butt;stroke-linejoin:round"
       id="line2d_6">
      <path
         inkscape:connector-curvature="0"
         id="path191"
         style="fill:none;stroke:#1f77b4;stroke-width:1.5;stroke-linecap:square;stroke-linejoin:round"
         d="m 90,66.665455 h 9.524096 l 0.560244,42.358445 h 1.68072 l 0.56024,-42.358445 h 1.12048 l 0.56024,42.358445 0.56025,-42.358445 h 0.56024 l 0.56024,42.358445 h 2.24096 l 0.56024,-42.358445 h 8.96386 l 0.56024,42.358445 h 10.08434 l 0.56024,-42.358445 h 10.64457 l 0.56025,42.358445 h 2.24096 l 0.56024,-42.358445 h 6.16265 l 0.56024,42.358445 h 6.16265 l 0.56024,-42.358445 h 3.36145 l 0.56024,42.358445 0.56024,-42.358445 h 2.24096 l 0.56025,42.358445 0.56024,-42.358445 h 6.72289 l 0.56024,42.358445 h 5.04217 l 0.56024,-42.358445 h 1.12048 l 0.56024,42.358445 h 5.04217 l 0.56024,-42.358445 h 1.12048 l 0.56024,42.358445 h 0.56025 l 0.56024,-42.358445 h 2.8012 l 0.56024,42.358445 h 5.04217 l 0.56024,-42.358445 h 6.72289 l 0.56024,42.358445 h 2.24097 l 0.56024,-42.358445 h 5.60241 l 0.56024,42.358445 h 2.24096 l 0.56025,-42.358445 0.56024,42.358445 h 5.04216 l 0.56025,-42.358445 h 7.28313 l 0.56024,42.358445 h 13.44578 l 0.56024,-42.358445 h 1.12048 l 0.56025,42.358445 h 3.92168 l 0.56024,-42.358445 h 2.80121 l 0.56024,42.358445 h 1.68072 l 0.56024,-42.358445 h 11.20482 l 0.56024,42.358445 h 13.44579 l 0.56024,-42.358445 h 0.56024 l 0.56024,42.358445 h 3.92169 l 0.56024,-42.358445 h 2.8012 l 0.56024,42.358445 h 0.56024 l 0.56024,-42.358445 h 3.36145 l 0.56024,42.358445 h 0.56024 l 0.56024,-42.358445 h 10.64458 l 0.56024,42.358445 h 4.48193 l 0.56024,-42.358445 h 9.5241 l 0.56024,42.358445 h 8.40361 l 0.56024,-42.358445 h 11.76506 l 0.56025,42.358445 h 1.68072 l 0.56024,-42.358445 h 7.28313 l 0.56024,42.358445 h 14.56627 l 0.56024,-42.358445 h 6.72289 l 0.56024,42.358445 h 21.28916 l 0.56024,-42.358445 h 18.48795 l 0.56024,42.358445 0.56024,-42.358445 h 11.20482 l 0.56024,42.358445 h 0.56024 l 0.56024,-42.358445 h 1.12049 l 0.56024,42.358445 h 2.8012 l 0.56024,-42.358445 h 2.24097 l 0.56024,42.358445 h 11.76506 l 0.56024,-42.358445 h 2.8012 l 0.56025,42.358445 h 0.56024 l 0.56024,-42.358445 h 11.20482 l 0.56024,42.358445 0.56024,-42.358445 h 1.68072 l 0.56024,42.358445 h 2.80121 l 0.56024,-42.358445 h 2.24096 l 0.56024,42.358445 0.56024,-42.358445 h 11.76506 l 0.56024,42.358445 h 7.28314 l 0.56024,-42.358445 h 21.28915 l 0.56025,42.358445 h 23.53012 l 0.56024,-42.358445 h 3.36144 l 0.56025,42.358445 h 2.24096 l 0.56024,-42.358445 h 29.69277 l 0.56024,42.358445 h 3.36145 l 0.56024,-42.358445 h 1.12048 l 0.56024,42.358445 h 0.56024 l 0.56024,-42.358445 h 1.12048 l 0.56025,42.358445 0.56024,-42.358445 h 8.40361 l 0.56024,42.358445 h 17.92771 l 0.56024,-42.358445 h 1.12049 l 0.56024,42.358445 H 648 v 0"
         clip-path="url(#pc952cef870)" />
    </g>
    <g
       style="stroke-linecap:butt;stroke-linejoin:round"
       id="line2d_7">
      <path
         inkscape:connector-curvature="0"
         id="path194"
         style="fill:none;stroke:#ff7f0e;stroke-width:1.5;stroke-linecap:square;stroke-linejoin:round"
         d="m 90,193.74078 h 9.524096 l 0.560244,-42.35844 h 17.36747 l 0.56024,42.35844 h 6.16265 l 0.56024,-42.35844 h 8.96385 l 0.56025,42.35844 h 8.40361 l 0.56024,-42.35844 h 5.60241 l 0.56024,42.35844 h 24.09036 l 0.56024,-42.35844 h 19.60844 l 0.56024,42.35844 h 14.00602 l 0.56024,-42.35844 h 3.36145 l 0.56024,42.35844 h 9.5241 l 0.56024,-42.35844 h 2.24096 l 0.56024,42.35844 h 4.48193 l 0.56024,-42.35844 h 7.84337 l 0.56025,42.35844 h 9.52409 l 0.56024,-42.35844 h 1.12049 l 0.56024,42.35844 h 22.96988 l 0.56024,-42.35844 h 21.28915 l 0.56024,42.35844 h 15.12651 l 0.56024,-42.35844 h 28.57229 l 0.56024,42.35844 h 21.28916 l 0.56024,-42.35844 h 1.12048 l 0.56024,42.35844 H 369 l 0.56024,-42.35844 h 2.24096 l 0.56025,42.35844 h 12.3253 l 0.56024,-42.35844 h 17.92771 l 0.56024,42.35844 h 12.88554 l 0.56024,-42.35844 h 6.16265 l 0.56024,42.35844 h 14.00603 l 0.56024,-42.35844 h 10.64458 l 0.56024,42.35844 h 19.60843 l 0.56024,-42.35844 h 5.04217 l 0.56024,42.35844 h 11.20482 l 0.56024,-42.35844 h 0.56024 l 0.56024,42.35844 h 5.60242 l 0.56024,-42.35844 h 19.60843 l 0.56024,42.35844 h 2.8012 l 0.56025,-42.35844 h 30.25301 l 0.56024,42.35844 h 29.13253 l 0.56024,-42.35844 h 2.8012 l 0.56025,42.35844 h 14.56626 l 0.56024,-42.35844 h 15.12651 l 0.56024,42.35844 h 32.49398 l 0.56024,-42.35844 h 1.68072 L 648,193.74078 v 0"
         clip-path="url(#pc952cef870)" />
    </g>
    <g
       style="stroke-linecap:butt;stroke-linejoin:round"
       id="line2d_8">
      <path
         inkscape:connector-curvature="0"
         id="path197"
         style="fill:none;stroke:#2ca02c;stroke-width:1.5;stroke-linecap:square;stroke-linejoin:round"
         d="m 90,278.45766 h 100.84337 l 0.56024,-42.35844 h 5.60241 l 0.56024,42.35844 h 19.0482 l 0.56024,-42.35844 h 5.04217 l 0.56024,42.35844 h 19.60843 l 0.56024,-42.35844 h 1.68073 l 0.56024,42.35844 h 26.89156 l 0.56024,-42.35844 h 7.28314 l 0.56024,42.35844 h 0.56024 l 0.56024,-42.35844 h 3.36145 l 0.56024,42.35844 h 1.12048 l 0.56024,-42.35844 h 9.5241 l 0.56024,42.35844 h 12.3253 l 0.56024,-42.35844 h 1.68072 l 0.56024,42.35844 h 8.96386 l 0.56024,-42.35844 h 6.16265 l 0.56024,42.35844 h 50.98193 l 0.56024,-42.35844 h 6.16265 l 0.56024,42.35844 h 2.80121 l 0.56024,-42.35844 h 1.68072 l 0.56024,42.35844 H 507.93976 L 508.5,236.09922 h 15.12651 l 0.56024,42.35844 h 2.24096 l 0.56024,-42.35844 h 5.60241 l 0.56024,42.35844 h 2.24097 l 0.56024,-42.35844 h 6.72289 l 0.56024,42.35844 h 33.61446 l 0.56024,-42.35844 h 6.72289 l 0.56024,42.35844 h 38.09639 l 0.56024,-42.35844 h 6.72289 l 0.56024,42.35844 H 648 v 0"
         clip-path="url(#pc952cef870)" />
    </g>
    <g
       style="stroke-linecap:butt;stroke-linejoin:round"
       id="line2d_9">
      <path
         inkscape:connector-curvature="0"
         id="path200"
         style="fill:none;stroke:#d62728;stroke-width:1.5;stroke-linecap:square;stroke-linejoin:round"
         d="m 106.24699,363.17455 h 38.65662 l 0.56024,-42.35845 0.56025,42.35845 h 45.37951 l 0.56024,-42.35845 0.56025,42.35845 h 23.53012 l 0.56024,-42.35845 h 2.8012 l 0.56024,42.35845 0.56024,-42.35845 0.56025,42.35845 0.56024,-42.35845 0.56024,42.35845 h 20.72891 l 0.56024,-42.35845 h 0.56024 l 0.56025,42.35845 h 29.69277 l 0.56024,-42.35845 h 3.36144 l 0.56024,42.35845 0.56025,-42.35845 0.56024,42.35845 h 13.44578 l 0.56024,-42.35845 0.56024,42.35845 0.56024,-42.35845 0.56024,42.35845 h 27.45181 l 0.56024,-42.35845 h 2.80121 l 0.56024,42.35845 0.56024,-42.35845 h 0.56024 l 0.56024,42.35845 h 1.68072 l 0.56024,-42.35845 0.56025,42.35845 h 48.18072 l 0.56024,-42.35845 h 1.12048 l 0.56024,42.35845 h 1.68072 l 0.56025,-42.35845 h 0.56024 l 0.56024,42.35845 h 2.24096 l 0.56024,-42.35845 h 0.56024 l 0.56024,42.35845 0.56025,-42.35845 h 1.12048 l 0.56024,42.35845 h 103.64458 l 0.56024,-42.35845 h 1.12048 l 0.56024,42.35845 h 16.80723 l 0.56024,-42.35845 0.56024,42.35845 h 3.92169 l 0.56024,-42.35845 0.56024,42.35845 h 1.12048 l 0.56024,-42.35845 h 3.36145 l 0.56024,42.35845 0.56024,-42.35845 h 3.36145 l 0.56024,42.35845 h 2.8012 l 0.56024,-42.35845 0.56024,42.35845 h 10.64458 l 0.56024,-42.35845 0.56025,42.35845 h 36.9759 l 0.56024,-42.35845 0.56024,42.35845 h 38.65663 l 0.56024,-42.35845 0.56024,42.35845 H 648 v 0"
         clip-path="url(#pc952cef870)" />
    </g>
    <g
       style="stroke-linecap:butt;stroke-linejoin:round"
       id="patch_3">
      <path
         inkscape:connector-curvature="0"
         id="path203"
         style="fill:none;stroke:#000000;stroke-width:0.80000001;stroke-linecap:square;stroke-linejoin:miter"
         d="M 90,378 V 51.84" />
    </g>
    <g
       style="stroke-linecap:butt;stroke-linejoin:round"
       id="patch_4">
      <path
         inkscape:connector-curvature="0"
         id="path206"
         style="fill:none;stroke:#000000;stroke-width:0.80000001;stroke-linecap:square;stroke-linejoin:miter"
         d="M 648,378 V 51.84" />
    </g>
    <g
       style="stroke-linecap:butt;stroke-linejoin:round"
       id="patch_5">
      <path
         inkscape:connector-curvature="0"
         id="path209"
         style="fill:none;stroke:#000000;stroke-width:0.80000001;stroke-linecap:square;stroke-linejoin:miter"
         d="M 90,378 H 648" />
    </g>
    <g
       style="stroke-linecap:butt;stroke-linejoin:round"
       id="patch_6">
      <path
         inkscape:connector-curvature="0"
         id="path212"
         style="fill:none;stroke:#000000;stroke-width:0.80000001;stroke-linecap:square;stroke-linejoin:miter"
         d="M 90,51.84 H 648" />
    </g>
    <g
       style="stroke-linecap:butt;stroke-linejoin:round"
       id="text_7">
      <!-- interaction002 -->
      <defs
         id="defs220">
        <path
           style="stroke-linecap:butt;stroke-linejoin:round"
           inkscape:connector-curvature="0"
           id="DejaVuSans-6e"
           d="M 54.890625,33.015625 V 0 H 45.90625 v 32.71875 q 0,7.765625 -3.03125,11.609375 -3.03125,3.859375 -9.078125,3.859375 -7.28125,0 -11.484375,-4.640625 -4.203125,-4.625 -4.203125,-12.640625 V 0 h -9.03125 v 54.6875 h 9.03125 v -8.5 q 3.234375,4.9375 7.59375,7.375 4.375,2.4375 10.09375,2.4375 9.421875,0 14.25,-5.828125 4.84375,-5.828125 4.84375,-17.15625 z" />
        <path
           style="stroke-linecap:butt;stroke-linejoin:round"
           inkscape:connector-curvature="0"
           id="DejaVuSans-72"
           d="m 41.109375,46.296875 q -1.515625,0.875 -3.296875,1.28125 Q 36.03125,48 33.890625,48 26.265625,48 22.1875,43.046875 18.109375,38.09375 18.109375,28.8125 V 0 h -9.03125 v 54.6875 h 9.03125 v -8.5 q 2.84375,4.984375 7.375,7.390625 Q 30.03125,56 36.53125,56 q 0.921875,0 2.046875,-0.125 1.125,-0.109375 2.484375,-0.359375 z" />
        <path
           style="stroke-linecap:butt;stroke-linejoin:round"
           inkscape:connector-curvature="0"
           id="DejaVuSans-61"
           d="m 34.28125,27.484375 q -10.890625,0 -15.09375,-2.484375 -4.203125,-2.484375 -4.203125,-8.5 0,-4.78125 3.15625,-7.59375 3.15625,-2.796875 8.5625,-2.796875 7.484375,0 12,5.296875 4.515625,5.296875 4.515625,14.078125 v 2 z m 17.921875,3.71875 V 0 H 43.21875 v 8.296875 q -3.078125,-4.96875 -7.671875,-7.34375 -4.59375,-2.375 -11.234375,-2.375 -8.390625,0 -13.359375,4.71875 Q 6,8.015625 6,15.921875 q 0,9.21875 6.171875,13.90625 6.1875,4.6875 18.4375,4.6875 H 43.21875 v 0.890625 q 0,6.203125 -4.078125,9.59375 -4.078125,3.390625 -11.453125,3.390625 -4.6875,0 -9.140625,-1.125 -4.4375,-1.125 -8.53125,-3.375 v 8.3125 q 4.921875,1.90625 9.5625,2.84375 Q 24.21875,56 28.609375,56 q 11.875,0 17.734375,-6.15625 5.859375,-6.140625 5.859375,-18.640625 z" />
        <path
           style="stroke-linecap:butt;stroke-linejoin:round"
           inkscape:connector-curvature="0"
           id="DejaVuSans-63"
           d="M 48.78125,52.59375 V 44.1875 q -3.8125,2.109375 -7.640625,3.15625 -3.828125,1.046875 -7.734375,1.046875 -8.75,0 -13.59375,-5.546875 -4.828125,-5.53125 -4.828125,-15.546875 0,-10.015625 4.828125,-15.5625 4.84375,-5.53125 13.59375,-5.53125 3.90625,0 7.734375,1.046875 3.828125,1.046875 7.640625,3.15625 v -8.3125 q -3.765625,-1.75 -7.796875,-2.625 -4.015625,-0.890625 -8.5625,-0.890625 -12.359375,0 -19.640625,7.765625 -7.265625,7.765625 -7.265625,20.953125 0,13.375 7.34375,21.03125 Q 20.21875,56 33.015625,56 q 4.140625,0 8.09375,-0.859375 3.953125,-0.84375 7.671875,-2.546875 z" />
        <path
           style="stroke-linecap:butt;stroke-linejoin:round"
           inkscape:connector-curvature="0"
           id="DejaVuSans-6f"
           d="m 30.609375,48.390625 q -7.21875,0 -11.421875,-5.640625 -4.203125,-5.640625 -4.203125,-15.453125 0,-9.8125 4.171875,-15.453125 4.1875,-5.640625 11.453125,-5.640625 7.1875,0 11.375,5.65625 4.203125,5.671875 4.203125,15.4375 0,9.71875 -4.203125,15.40625 -4.1875,5.6875 -11.375,5.6875 z m 0,7.609375 q 11.71875,0 18.40625,-7.625 6.703125,-7.609375 6.703125,-21.078125 0,-13.421875 -6.703125,-21.078125 -6.6875,-7.640625 -18.40625,-7.640625 -11.765625,0 -18.4375,7.640625 -6.65625,7.65625 -6.65625,21.078125 0,13.46875 6.65625,21.078125 Q 18.84375,56 30.609375,56 Z" />
      </defs>
      <g
         style="stroke-linecap:butt;stroke-linejoin:round"
         id="g250"
         transform="matrix(0.12,0,0,-0.12,325.09875,45.84)">
        <use
           height="100%"
           width="100%"
           y="0"
           x="0"
           style="stroke-linecap:butt;stroke-linejoin:round"
           id="use222"
           xlink:href="#DejaVuSans-69" />
        <use
           height="100%"
           width="100%"
           y="0"
           style="stroke-linecap:butt;stroke-linejoin:round"
           id="use224"
           xlink:href="#DejaVuSans-6e"
           x="27.783203" />
        <use
           height="100%"
           width="100%"
           y="0"
           style="stroke-linecap:butt;stroke-linejoin:round"
           id="use226"
           xlink:href="#DejaVuSans-74"
           x="91.162109" />
        <use
           height="100%"
           width="100%"
           y="0"
           style="stroke-linecap:butt;stroke-linejoin:round"
           id="use228"
           xlink:href="#DejaVuSans-65"
           x="130.37109" />
        <use
           height="100%"
           width="100%"
           y="0"
           style="stroke-linecap:butt;stroke-linejoin:round"
           id="use230"
           xlink:href="#DejaVuSans-72"
           x="191.89453" />
        <use
           height="100%"
           width="100%"
           y="0"
           style="stroke-linecap:butt;stroke-linejoin:round"
           id="use232"
           xlink:href="#DejaVuSans-61"
           x="233.00781" />
        <use
           height="100%"
           width="100%"
           y="0"
           style="stroke-linecap:butt;stroke-linejoin:round"
           id="use234"
           xlink:href="#DejaVuSans-63"
           x="294.28711" />
        <use
           height="100%"
           width="100%"
           y="0"
           style="stroke-linecap:butt;stroke-linejoin:round"
           id="use236"
           xlink:href="#DejaVuSans-74"
           x="349.26758" />
        <use
           height="100%"
           width="100%"
           y="0"
           style="stroke-linecap:butt;stroke-linejoin:round"
           id="use238"
           xlink:href="#DejaVuSans-69"
           x="388.47656" />
        <use
           height="100%"
           width="100%"
           y="0"
           style="stroke-linecap:butt;stroke-linejoin:round"
           id="use240"
           xlink:href="#DejaVuSans-6f"
           x="416.25977" />
        <use
           height="100%"
           width="100%"
           y="0"
           style="stroke-linecap:butt;stroke-linejoin:round"
           id="use242"
           xlink:href="#DejaVuSans-6e"
           x="477.44141" />
        <use
           height="100%"
           width="100%"
           y="0"
           style="stroke-linecap:butt;stroke-linejoin:round"
           id="use244"
           xlink:href="#DejaVuSans-30"
           x="540.82031" />
        <use
           height="100%"
           width="100%"
           y="0"
           style="stroke-linecap:butt;stroke-linejoin:round"
           id="use246"
           xlink:href="#DejaVuSans-30"
           x="604.44336" />
        <use
           height="100%"
           width="100%"
           y="0"
           style="stroke-linecap:butt;stroke-linejoin:round"
           id="use248"
           xlink:href="#DejaVuSans-32"
           x="668.06641" />
      </g>
    </g>
    <g
       style="stroke-linecap:butt;stroke-linejoin:round"
       id="legend_1">
      <g
         style="stroke-linecap:butt;stroke-linejoin:round"
         id="patch_7">
        <path
           inkscape:connector-curvature="0"
           id="path253"
           style="opacity:0.8;fill:#ffffff;stroke:#cccccc;stroke-linecap:butt;stroke-linejoin:miter"
           d="m 655,245.77625 h 156.06719 q 2,0 2,-2 v -57.7125 q 0,-2 -2,-2 H 655 q -2,0 -2,2 v 57.7125 q 0,2 2,2 z" />
      </g>
      <g
         style="stroke-linecap:butt;stroke-linejoin:round"
         id="line2d_10">
        <path
           inkscape:connector-curvature="0"
           id="path256"
           style="fill:none;stroke:#1f77b4;stroke-width:1.5;stroke-linecap:square;stroke-linejoin:round"
           d="m 657,192.16219 h 20" />
      </g>
      <g
         style="stroke-linecap:butt;stroke-linejoin:round"
         id="line2d_11" />
      <g
         style="stroke-linecap:butt;stroke-linejoin:round"
         id="line2d_12">
        <path
           inkscape:connector-curvature="0"
           id="path301"
           style="fill:none;stroke:#ff7f0e;stroke-width:1.5;stroke-linecap:square;stroke-linejoin:round"
           d="m 657,206.84031 h 20" />
      </g>
      <g
         style="stroke-linecap:butt;stroke-linejoin:round"
         id="line2d_13" />
      <g
         style="stroke-linecap:butt;stroke-linejoin:round"
         id="line2d_14">
        <path
           inkscape:connector-curvature="0"
           id="path361"
           style="fill:none;stroke:#2ca02c;stroke-width:1.5;stroke-linecap:square;stroke-linejoin:round"
           d="m 657,221.51844 h 20" />
      </g>
      <g
         style="stroke-linecap:butt;stroke-linejoin:round"
         id="line2d_15" />
      <g
         style="stroke-linecap:butt;stroke-linejoin:round"
         id="line2d_16">
        <path
           inkscape:connector-curvature="0"
           id="path415"
           style="fill:none;stroke:#d62728;stroke-width:1.5;stroke-linecap:square;stroke-linejoin:round"
           d="m 657,236.19656 h 20" />
      </g>
      <g
         style="stroke-linecap:butt;stroke-linejoin:round"
         id="line2d_17" />
      <text
         xml:space="preserve"
         style="font-style:normal;font-weight:normal;font-size:10px;line-height:125%;font-family:sans-serif;letter-spacing:0px;word-spacing:0px;fill:#000000;fill-opacity:1;stroke:none;stroke-width:0.75px;stroke-linecap:butt;stroke-linejoin:miter;stroke-opacity:1"
         x="685.00018"
         y="194.92097"
         id="text4742"><tspan
           sodipodi:role="line"
           id="tspan4740"
           style="stroke-width:0.75px;stroke-linecap:butt;stroke-linejoin:round"
           x="685.00018"
           y="194.92097">Speaker talking</tspan></text>
      <text
         xml:space="preserve"
         style="font-style:normal;font-weight:normal;font-size:10px;line-height:125%;font-family:sans-serif;letter-spacing:0px;word-spacing:0px;fill:#000000;fill-opacity:1;stroke:none;stroke-width:0.75px;stroke-linecap:butt;stroke-linejoin:miter;stroke-opacity:1"
         x="685.00018"
         y="209.59911"
         id="text4792"><tspan
           sodipodi:role="line"
           id="tspan4790"
           style="stroke-width:0.75px;stroke-linecap:butt;stroke-linejoin:round"
           x="685.00018"
           y="209.59911">Speaker looks at listener</tspan></text>
      <text
         xml:space="preserve"
         style="font-style:normal;font-weight:normal;font-size:10px;line-height:125%;font-family:sans-serif;letter-spacing:0px;word-spacing:0px;fill:#000000;fill-opacity:1;stroke:none;stroke-width:0.75px;stroke-linecap:butt;stroke-linejoin:miter;stroke-opacity:1"
         x="684.67792"
         y="225.24646"
         id="text4802"><tspan
           sodipodi:role="line"
           id="tspan4800"
           style="stroke-width:0.75px;stroke-linecap:butt;stroke-linejoin:round"
           x="684.67792"
           y="225.24646">Listener backchannels</tspan></text>
      <text
         xml:space="preserve"
         style="font-style:normal;font-weight:normal;font-size:10px;line-height:125%;font-family:sans-serif;letter-spacing:0px;word-spacing:0px;fill:#000000;fill-opacity:1;stroke:none;stroke-width:0.75px;stroke-linecap:butt;stroke-linejoin:miter;stroke-opacity:1"
         x="684.67792"
         y="239.92459"
         id="text4810"><tspan
           sodipodi:role="line"
           id="tspan4808"
           style="stroke-width:0.75px;stroke-linecap:butt;stroke-linejoin:round"
           x="684.67792"
           y="239.92459">Predicted backchannels</tspan></text>
    </g>
  </g>
  <defs
     id="defs452">
    <clipPath
       id="pc952cef870"
       style="stroke-linecap:butt;stroke-linejoin:round">
      <rect
         height="326.16"
         width="558"
         x="90"
         y="51.84"
         id="rect449"
         style="stroke-linecap:butt;stroke-linejoin:round" />
    </clipPath>
  </defs>
</svg>
